<mxfile host="app.diagrams.net" modified="2021-10-19T06:13:34.107Z" agent="5.0 (Windows NT 10.0; Win64; x64) AppleWebKit/537.36 (KHTML, like Gecko) Chrome/94.0.4606.81 Safari/537.36" etag="WCeOdfcBDCTJgTy7c8LX" version="15.5.4" type="github">
  <diagram id="vln6_HgET20qZNgFivi2" name="Page-1">
    <mxGraphModel dx="1002" dy="686" grid="1" gridSize="10" guides="1" tooltips="1" connect="1" arrows="1" fold="1" page="1" pageScale="1" pageWidth="850" pageHeight="1100" math="0" shadow="0">
      <root>
        <mxCell id="0" />
        <mxCell id="1" parent="0" />
        <mxCell id="Ww4fZrXtN5Pln4jq7l9g-55" value="" style="ellipse;shape=cloud;whiteSpace=wrap;html=1;" parent="1" vertex="1">
          <mxGeometry x="590" y="25" width="480" height="290" as="geometry" />
        </mxCell>
        <mxCell id="Ww4fZrXtN5Pln4jq7l9g-2" value="GKE" style="swimlane;" parent="1" vertex="1">
          <mxGeometry x="130" y="100" width="480" height="620" as="geometry" />
        </mxCell>
        <mxCell id="Ww4fZrXtN5Pln4jq7l9g-11" style="edgeStyle=orthogonalEdgeStyle;rounded=0;orthogonalLoop=1;jettySize=auto;html=1;exitX=0.5;exitY=1;exitDx=0;exitDy=0;entryX=0.5;entryY=0;entryDx=0;entryDy=0;" parent="Ww4fZrXtN5Pln4jq7l9g-2" source="Ww4fZrXtN5Pln4jq7l9g-3" target="Ww4fZrXtN5Pln4jq7l9g-7" edge="1">
          <mxGeometry relative="1" as="geometry" />
        </mxCell>
        <mxCell id="Ww4fZrXtN5Pln4jq7l9g-3" value="commodity_manager" style="rounded=0;whiteSpace=wrap;html=1;" parent="Ww4fZrXtN5Pln4jq7l9g-2" vertex="1">
          <mxGeometry x="10" y="40" width="120" height="60" as="geometry" />
        </mxCell>
        <mxCell id="Ww4fZrXtN5Pln4jq7l9g-61" style="edgeStyle=orthogonalEdgeStyle;rounded=0;orthogonalLoop=1;jettySize=auto;html=1;exitX=1;exitY=0.5;exitDx=0;exitDy=0;entryX=0;entryY=0.5;entryDx=0;entryDy=0;" parent="Ww4fZrXtN5Pln4jq7l9g-2" source="Ww4fZrXtN5Pln4jq7l9g-4" target="Ww4fZrXtN5Pln4jq7l9g-5" edge="1">
          <mxGeometry relative="1" as="geometry" />
        </mxCell>
        <mxCell id="Ww4fZrXtN5Pln4jq7l9g-4" value="prometheus" style="rounded=0;whiteSpace=wrap;html=1;" parent="Ww4fZrXtN5Pln4jq7l9g-2" vertex="1">
          <mxGeometry x="140" y="480" width="120" height="60" as="geometry" />
        </mxCell>
        <mxCell id="Ww4fZrXtN5Pln4jq7l9g-8" value="blockfee_backend" style="rounded=0;whiteSpace=wrap;html=1;" parent="Ww4fZrXtN5Pln4jq7l9g-2" vertex="1">
          <mxGeometry x="140" y="40" width="120" height="60" as="geometry" />
        </mxCell>
        <mxCell id="Ww4fZrXtN5Pln4jq7l9g-14" style="edgeStyle=orthogonalEdgeStyle;rounded=0;orthogonalLoop=1;jettySize=auto;html=1;exitX=1;exitY=0.5;exitDx=0;exitDy=0;entryX=0.5;entryY=1;entryDx=0;entryDy=0;" parent="Ww4fZrXtN5Pln4jq7l9g-2" source="Ww4fZrXtN5Pln4jq7l9g-7" target="Ww4fZrXtN5Pln4jq7l9g-8" edge="1">
          <mxGeometry relative="1" as="geometry" />
        </mxCell>
        <mxCell id="Ww4fZrXtN5Pln4jq7l9g-7" value="bitraw-quest-db" style="rounded=0;whiteSpace=wrap;html=1;" parent="Ww4fZrXtN5Pln4jq7l9g-2" vertex="1">
          <mxGeometry x="10" y="110" width="120" height="60" as="geometry" />
        </mxCell>
        <mxCell id="Ww4fZrXtN5Pln4jq7l9g-35" style="edgeStyle=orthogonalEdgeStyle;rounded=0;orthogonalLoop=1;jettySize=auto;html=1;exitX=1;exitY=0.5;exitDx=0;exitDy=0;entryX=0;entryY=0.5;entryDx=0;entryDy=0;" parent="Ww4fZrXtN5Pln4jq7l9g-2" source="Ww4fZrXtN5Pln4jq7l9g-6" target="Ww4fZrXtN5Pln4jq7l9g-18" edge="1">
          <mxGeometry relative="1" as="geometry" />
        </mxCell>
        <mxCell id="Ww4fZrXtN5Pln4jq7l9g-6" value="cert-manager" style="rounded=0;whiteSpace=wrap;html=1;" parent="Ww4fZrXtN5Pln4jq7l9g-2" vertex="1">
          <mxGeometry x="10" y="180" width="120" height="60" as="geometry" />
        </mxCell>
        <mxCell id="Ww4fZrXtN5Pln4jq7l9g-5" value="grafana" style="rounded=0;whiteSpace=wrap;html=1;" parent="Ww4fZrXtN5Pln4jq7l9g-2" vertex="1">
          <mxGeometry x="270" y="480" width="120" height="60" as="geometry" />
        </mxCell>
        <mxCell id="Ww4fZrXtN5Pln4jq7l9g-18" value="ingress-controller" style="rounded=0;whiteSpace=wrap;html=1;" parent="Ww4fZrXtN5Pln4jq7l9g-2" vertex="1">
          <mxGeometry x="140" y="180" width="120" height="60" as="geometry" />
        </mxCell>
        <mxCell id="Ww4fZrXtN5Pln4jq7l9g-27" value="exchange-kafka" style="rounded=0;whiteSpace=wrap;html=1;" parent="Ww4fZrXtN5Pln4jq7l9g-2" vertex="1">
          <mxGeometry x="10" y="250" width="120" height="60" as="geometry" />
        </mxCell>
        <mxCell id="Ww4fZrXtN5Pln4jq7l9g-46" style="edgeStyle=orthogonalEdgeStyle;rounded=0;orthogonalLoop=1;jettySize=auto;html=1;exitX=0.25;exitY=0;exitDx=0;exitDy=0;entryX=0.25;entryY=1;entryDx=0;entryDy=0;" parent="Ww4fZrXtN5Pln4jq7l9g-2" source="Ww4fZrXtN5Pln4jq7l9g-30" target="Ww4fZrXtN5Pln4jq7l9g-29" edge="1">
          <mxGeometry relative="1" as="geometry">
            <Array as="points">
              <mxPoint x="300" y="390" />
              <mxPoint x="170" y="390" />
            </Array>
          </mxGeometry>
        </mxCell>
        <mxCell id="Ww4fZrXtN5Pln4jq7l9g-30" value="dingir-restapi" style="rounded=0;whiteSpace=wrap;html=1;" parent="Ww4fZrXtN5Pln4jq7l9g-2" vertex="1">
          <mxGeometry x="270" y="410" width="120" height="60" as="geometry" />
        </mxCell>
        <mxCell id="Ww4fZrXtN5Pln4jq7l9g-29" value="exchange-envoy" style="rounded=0;whiteSpace=wrap;html=1;" parent="Ww4fZrXtN5Pln4jq7l9g-2" vertex="1">
          <mxGeometry x="140" y="250" width="120" height="60" as="geometry" />
        </mxCell>
        <mxCell id="Ww4fZrXtN5Pln4jq7l9g-50" style="edgeStyle=orthogonalEdgeStyle;rounded=0;orthogonalLoop=1;jettySize=auto;html=1;exitX=0.5;exitY=0;exitDx=0;exitDy=0;entryX=0.5;entryY=1;entryDx=0;entryDy=0;" parent="Ww4fZrXtN5Pln4jq7l9g-2" source="Ww4fZrXtN5Pln4jq7l9g-28" target="Ww4fZrXtN5Pln4jq7l9g-48" edge="1">
          <mxGeometry relative="1" as="geometry" />
        </mxCell>
        <mxCell id="Ww4fZrXtN5Pln4jq7l9g-28" value="dingir-persistor" style="rounded=0;whiteSpace=wrap;html=1;" parent="Ww4fZrXtN5Pln4jq7l9g-2" vertex="1">
          <mxGeometry x="10" y="480" width="120" height="60" as="geometry" />
        </mxCell>
        <mxCell id="Ww4fZrXtN5Pln4jq7l9g-47" style="edgeStyle=orthogonalEdgeStyle;rounded=0;orthogonalLoop=1;jettySize=auto;html=1;exitX=0.25;exitY=0;exitDx=0;exitDy=0;entryX=0;entryY=1;entryDx=0;entryDy=0;" parent="Ww4fZrXtN5Pln4jq7l9g-2" source="Ww4fZrXtN5Pln4jq7l9g-33" target="Ww4fZrXtN5Pln4jq7l9g-29" edge="1">
          <mxGeometry relative="1" as="geometry">
            <Array as="points">
              <mxPoint x="140" y="410" />
            </Array>
          </mxGeometry>
        </mxCell>
        <mxCell id="Ww4fZrXtN5Pln4jq7l9g-49" style="edgeStyle=orthogonalEdgeStyle;rounded=0;orthogonalLoop=1;jettySize=auto;html=1;exitX=0;exitY=0.5;exitDx=0;exitDy=0;entryX=1;entryY=0.5;entryDx=0;entryDy=0;" parent="Ww4fZrXtN5Pln4jq7l9g-2" source="Ww4fZrXtN5Pln4jq7l9g-33" target="Ww4fZrXtN5Pln4jq7l9g-48" edge="1">
          <mxGeometry relative="1" as="geometry" />
        </mxCell>
        <mxCell id="Ww4fZrXtN5Pln4jq7l9g-33" value="dingir-matchengine" style="rounded=0;whiteSpace=wrap;html=1;" parent="Ww4fZrXtN5Pln4jq7l9g-2" vertex="1">
          <mxGeometry x="140" y="410" width="120" height="60" as="geometry" />
        </mxCell>
        <mxCell id="Ww4fZrXtN5Pln4jq7l9g-32" value="exchange-zookeper&lt;span style=&quot;color: rgba(0 , 0 , 0 , 0) ; font-family: monospace ; font-size: 0px&quot;&gt;%3CmxGraphModel%3E%3Croot%3E%3CmxCell%20id%3D%220%22%2F%3E%3CmxCell%20id%3D%221%22%20parent%3D%220%22%2F%3E%3CmxCell%20id%3D%222%22%20value%3D%22PV%22%20style%3D%22shape%3Dcylinder3%3BwhiteSpace%3Dwrap%3Bhtml%3D1%3BboundedLbl%3D1%3BbackgroundOutline%3D1%3Bsize%3D15%3B%22%20vertex%3D%221%22%20parent%3D%221%22%3E%3CmxGeometry%20x%3D%2250%22%20y%3D%22130%22%20width%3D%2260%22%20height%3D%2280%22%20as%3D%22geometry%22%2F%3E%3C%2FmxCell%3E%3C%2Froot%3E%3C%2FmxGraphModel%3E&lt;/span&gt;" style="rounded=0;whiteSpace=wrap;html=1;" parent="Ww4fZrXtN5Pln4jq7l9g-2" vertex="1">
          <mxGeometry x="10" y="320" width="120" height="60" as="geometry" />
        </mxCell>
        <mxCell id="Ww4fZrXtN5Pln4jq7l9g-31" value="keycloak" style="rounded=0;whiteSpace=wrap;html=1;" parent="Ww4fZrXtN5Pln4jq7l9g-2" vertex="1">
          <mxGeometry x="180" y="320" width="120" height="60" as="geometry" />
        </mxCell>
        <mxCell id="Ww4fZrXtN5Pln4jq7l9g-48" value="exchange-db&lt;span style=&quot;color: rgba(0 , 0 , 0 , 0) ; font-family: monospace ; font-size: 0px&quot;&gt;%3CmxGraphModel%3E%3Croot%3E%3CmxCell%20id%3D%220%22%2F%3E%3CmxCell%20id%3D%221%22%20parent%3D%220%22%2F%3E%3CmxCell%20id%3D%222%22%20value%3D%22PV%22%20style%3D%22shape%3Dcylinder3%3BwhiteSpace%3Dwrap%3Bhtml%3D1%3BboundedLbl%3D1%3BbackgroundOutline%3D1%3Bsize%3D15%3B%22%20vertex%3D%221%22%20parent%3D%221%22%3E%3CmxGeometry%20x%3D%2250%22%20y%3D%22130%22%20width%3D%2260%22%20height%3D%2280%22%20as%3D%22geometry%22%2F%3E%3C%2FmxCell%3E%3C%2Froot%3E%3C%2FmxGraphModel%3E&lt;/span&gt;" style="rounded=0;whiteSpace=wrap;html=1;" parent="Ww4fZrXtN5Pln4jq7l9g-2" vertex="1">
          <mxGeometry x="10" y="410" width="120" height="60" as="geometry" />
        </mxCell>
        <mxCell id="A-THcMaurx6jMM8Nux3n-3" style="edgeStyle=orthogonalEdgeStyle;rounded=0;orthogonalLoop=1;jettySize=auto;html=1;exitX=1;exitY=0.5;exitDx=0;exitDy=0;entryX=0;entryY=0.5;entryDx=0;entryDy=0;" edge="1" parent="Ww4fZrXtN5Pln4jq7l9g-2" source="A-THcMaurx6jMM8Nux3n-1" target="A-THcMaurx6jMM8Nux3n-2">
          <mxGeometry relative="1" as="geometry">
            <Array as="points">
              <mxPoint x="430" y="580" />
              <mxPoint x="430" y="380" />
              <mxPoint x="320" y="380" />
              <mxPoint x="320" y="343" />
            </Array>
          </mxGeometry>
        </mxCell>
        <mxCell id="A-THcMaurx6jMM8Nux3n-1" value="uptime-kuma" style="rounded=0;whiteSpace=wrap;html=1;" vertex="1" parent="Ww4fZrXtN5Pln4jq7l9g-2">
          <mxGeometry x="270" y="550" width="120" height="60" as="geometry" />
        </mxCell>
        <mxCell id="Ww4fZrXtN5Pln4jq7l9g-19" value="ingress" style="swimlane;fontStyle=0;childLayout=stackLayout;horizontal=1;startSize=26;horizontalStack=0;resizeParent=1;resizeParentMax=0;resizeLast=0;collapsible=1;marginBottom=0;" parent="Ww4fZrXtN5Pln4jq7l9g-2" vertex="1">
          <mxGeometry x="360" y="200" width="140" height="156" as="geometry" />
        </mxCell>
        <mxCell id="Ww4fZrXtN5Pln4jq7l9g-24" value="api" style="text;strokeColor=none;fillColor=none;align=left;verticalAlign=top;spacingLeft=4;spacingRight=4;overflow=hidden;rotatable=0;points=[[0,0.5],[1,0.5]];portConstraint=eastwest;" parent="Ww4fZrXtN5Pln4jq7l9g-19" vertex="1">
          <mxGeometry y="26" width="140" height="26" as="geometry" />
        </mxCell>
        <mxCell id="Ww4fZrXtN5Pln4jq7l9g-21" value="match-api" style="text;strokeColor=none;fillColor=none;align=left;verticalAlign=top;spacingLeft=4;spacingRight=4;overflow=hidden;rotatable=0;points=[[0,0.5],[1,0.5]];portConstraint=eastwest;" parent="Ww4fZrXtN5Pln4jq7l9g-19" vertex="1">
          <mxGeometry y="52" width="140" height="26" as="geometry" />
        </mxCell>
        <mxCell id="Ww4fZrXtN5Pln4jq7l9g-20" value="auth" style="text;strokeColor=none;fillColor=none;align=left;verticalAlign=top;spacingLeft=4;spacingRight=4;overflow=hidden;rotatable=0;points=[[0,0.5],[1,0.5]];portConstraint=eastwest;" parent="Ww4fZrXtN5Pln4jq7l9g-19" vertex="1">
          <mxGeometry y="78" width="140" height="26" as="geometry" />
        </mxCell>
        <mxCell id="Ww4fZrXtN5Pln4jq7l9g-22" value="monitoring" style="text;strokeColor=none;fillColor=none;align=left;verticalAlign=top;spacingLeft=4;spacingRight=4;overflow=hidden;rotatable=0;points=[[0,0.5],[1,0.5]];portConstraint=eastwest;" parent="Ww4fZrXtN5Pln4jq7l9g-19" vertex="1">
          <mxGeometry y="104" width="140" height="26" as="geometry" />
        </mxCell>
        <mxCell id="A-THcMaurx6jMM8Nux3n-2" value="status" style="text;strokeColor=none;fillColor=none;align=left;verticalAlign=top;spacingLeft=4;spacingRight=4;overflow=hidden;rotatable=0;points=[[0,0.5],[1,0.5]];portConstraint=eastwest;" vertex="1" parent="Ww4fZrXtN5Pln4jq7l9g-19">
          <mxGeometry y="130" width="140" height="26" as="geometry" />
        </mxCell>
        <mxCell id="Ww4fZrXtN5Pln4jq7l9g-38" style="edgeStyle=orthogonalEdgeStyle;rounded=0;orthogonalLoop=1;jettySize=auto;html=1;exitX=1;exitY=0.5;exitDx=0;exitDy=0;entryX=0;entryY=0.5;entryDx=0;entryDy=0;" parent="Ww4fZrXtN5Pln4jq7l9g-2" source="Ww4fZrXtN5Pln4jq7l9g-8" target="Ww4fZrXtN5Pln4jq7l9g-24" edge="1">
          <mxGeometry relative="1" as="geometry">
            <Array as="points">
              <mxPoint x="310" y="70" />
              <mxPoint x="310" y="219" />
            </Array>
          </mxGeometry>
        </mxCell>
        <mxCell id="Ww4fZrXtN5Pln4jq7l9g-39" style="edgeStyle=orthogonalEdgeStyle;rounded=0;orthogonalLoop=1;jettySize=auto;html=1;exitX=1;exitY=0.5;exitDx=0;exitDy=0;entryX=0;entryY=0.5;entryDx=0;entryDy=0;" parent="Ww4fZrXtN5Pln4jq7l9g-2" source="Ww4fZrXtN5Pln4jq7l9g-29" target="Ww4fZrXtN5Pln4jq7l9g-21" edge="1">
          <mxGeometry relative="1" as="geometry" />
        </mxCell>
        <mxCell id="Ww4fZrXtN5Pln4jq7l9g-41" style="edgeStyle=orthogonalEdgeStyle;rounded=0;orthogonalLoop=1;jettySize=auto;html=1;exitX=1;exitY=0.5;exitDx=0;exitDy=0;entryX=0;entryY=0.5;entryDx=0;entryDy=0;" parent="Ww4fZrXtN5Pln4jq7l9g-2" source="Ww4fZrXtN5Pln4jq7l9g-31" target="Ww4fZrXtN5Pln4jq7l9g-20" edge="1">
          <mxGeometry relative="1" as="geometry">
            <Array as="points">
              <mxPoint x="300" y="350" />
              <mxPoint x="300" y="271" />
            </Array>
          </mxGeometry>
        </mxCell>
        <mxCell id="Ww4fZrXtN5Pln4jq7l9g-40" style="edgeStyle=orthogonalEdgeStyle;rounded=0;orthogonalLoop=1;jettySize=auto;html=1;exitX=1;exitY=0.5;exitDx=0;exitDy=0;entryX=0;entryY=0.5;entryDx=0;entryDy=0;" parent="Ww4fZrXtN5Pln4jq7l9g-2" source="Ww4fZrXtN5Pln4jq7l9g-5" target="Ww4fZrXtN5Pln4jq7l9g-22" edge="1">
          <mxGeometry relative="1" as="geometry">
            <Array as="points">
              <mxPoint x="410" y="510" />
              <mxPoint x="410" y="405" />
              <mxPoint x="310" y="405" />
              <mxPoint x="310" y="317" />
            </Array>
          </mxGeometry>
        </mxCell>
        <mxCell id="Ww4fZrXtN5Pln4jq7l9g-36" style="edgeStyle=orthogonalEdgeStyle;rounded=0;orthogonalLoop=1;jettySize=auto;html=1;exitX=1;exitY=0.5;exitDx=0;exitDy=0;entryX=0.5;entryY=0;entryDx=0;entryDy=0;" parent="Ww4fZrXtN5Pln4jq7l9g-2" source="Ww4fZrXtN5Pln4jq7l9g-18" target="Ww4fZrXtN5Pln4jq7l9g-19" edge="1">
          <mxGeometry relative="1" as="geometry" />
        </mxCell>
        <mxCell id="Ww4fZrXtN5Pln4jq7l9g-9" value="PV" style="shape=cylinder3;whiteSpace=wrap;html=1;boundedLbl=1;backgroundOutline=1;size=15;" parent="1" vertex="1">
          <mxGeometry x="50" y="130" width="60" height="80" as="geometry" />
        </mxCell>
        <mxCell id="Ww4fZrXtN5Pln4jq7l9g-15" style="edgeStyle=orthogonalEdgeStyle;rounded=0;orthogonalLoop=1;jettySize=auto;html=1;exitX=0;exitY=0.5;exitDx=0;exitDy=0;entryX=0.855;entryY=1;entryDx=0;entryDy=-4.35;entryPerimeter=0;" parent="1" source="Ww4fZrXtN5Pln4jq7l9g-7" target="Ww4fZrXtN5Pln4jq7l9g-9" edge="1">
          <mxGeometry relative="1" as="geometry" />
        </mxCell>
        <mxCell id="Ww4fZrXtN5Pln4jq7l9g-65" style="edgeStyle=orthogonalEdgeStyle;rounded=0;orthogonalLoop=1;jettySize=auto;html=1;exitX=0.5;exitY=1;exitDx=0;exitDy=0;exitPerimeter=0;entryX=0.5;entryY=0;entryDx=0;entryDy=0;" parent="1" source="Ww4fZrXtN5Pln4jq7l9g-26" target="Ww4fZrXtN5Pln4jq7l9g-64" edge="1">
          <mxGeometry relative="1" as="geometry" />
        </mxCell>
        <mxCell id="Ww4fZrXtN5Pln4jq7l9g-26" value="bitraw.io" style="shape=cylinder3;whiteSpace=wrap;html=1;boundedLbl=1;backgroundOutline=1;size=15;" parent="1" vertex="1">
          <mxGeometry x="670" y="130" width="80" height="90" as="geometry" />
        </mxCell>
        <mxCell id="Ww4fZrXtN5Pln4jq7l9g-34" value="PV" style="shape=cylinder3;whiteSpace=wrap;html=1;boundedLbl=1;backgroundOutline=1;size=15;" parent="1" vertex="1">
          <mxGeometry x="50" y="500" width="60" height="80" as="geometry" />
        </mxCell>
        <mxCell id="Ww4fZrXtN5Pln4jq7l9g-54" style="edgeStyle=orthogonalEdgeStyle;rounded=0;orthogonalLoop=1;jettySize=auto;html=1;exitX=0;exitY=0.5;exitDx=0;exitDy=0;entryX=1;entryY=0.5;entryDx=0;entryDy=0;entryPerimeter=0;" parent="1" source="Ww4fZrXtN5Pln4jq7l9g-48" target="Ww4fZrXtN5Pln4jq7l9g-34" edge="1">
          <mxGeometry relative="1" as="geometry" />
        </mxCell>
        <mxCell id="Ww4fZrXtN5Pln4jq7l9g-66" style="edgeStyle=orthogonalEdgeStyle;rounded=0;orthogonalLoop=1;jettySize=auto;html=1;exitX=0.5;exitY=1;exitDx=0;exitDy=0;exitPerimeter=0;entryX=0.5;entryY=0;entryDx=0;entryDy=0;" parent="1" source="Ww4fZrXtN5Pln4jq7l9g-56" target="Ww4fZrXtN5Pln4jq7l9g-63" edge="1">
          <mxGeometry relative="1" as="geometry" />
        </mxCell>
        <mxCell id="Ww4fZrXtN5Pln4jq7l9g-56" value="rft.global" style="shape=cylinder3;whiteSpace=wrap;html=1;boundedLbl=1;backgroundOutline=1;size=15;" parent="1" vertex="1">
          <mxGeometry x="770" y="130" width="80" height="90" as="geometry" />
        </mxCell>
        <mxCell id="Ww4fZrXtN5Pln4jq7l9g-67" style="edgeStyle=orthogonalEdgeStyle;rounded=0;orthogonalLoop=1;jettySize=auto;html=1;exitX=0.5;exitY=1;exitDx=0;exitDy=0;exitPerimeter=0;entryX=0.5;entryY=0;entryDx=0;entryDy=0;" parent="1" source="Ww4fZrXtN5Pln4jq7l9g-57" target="Ww4fZrXtN5Pln4jq7l9g-60" edge="1">
          <mxGeometry relative="1" as="geometry" />
        </mxCell>
        <mxCell id="Ww4fZrXtN5Pln4jq7l9g-57" value="blockfee.io" style="shape=cylinder3;whiteSpace=wrap;html=1;boundedLbl=1;backgroundOutline=1;size=15;" parent="1" vertex="1">
          <mxGeometry x="870" y="130" width="80" height="90" as="geometry" />
        </mxCell>
        <mxCell id="Ww4fZrXtN5Pln4jq7l9g-58" value="VM" style="swimlane;" parent="1" vertex="1">
          <mxGeometry x="790" y="510" width="200" height="200" as="geometry" />
        </mxCell>
        <mxCell id="Ww4fZrXtN5Pln4jq7l9g-69" value="matomo" style="rounded=0;whiteSpace=wrap;html=1;" parent="Ww4fZrXtN5Pln4jq7l9g-58" vertex="1">
          <mxGeometry x="40" y="50" width="120" height="60" as="geometry" />
        </mxCell>
        <mxCell id="Ww4fZrXtN5Pln4jq7l9g-60" value="Loadbalancer" style="ellipse;whiteSpace=wrap;html=1;aspect=fixed;" parent="1" vertex="1">
          <mxGeometry x="870" y="250" width="80" height="80" as="geometry" />
        </mxCell>
        <mxCell id="Ww4fZrXtN5Pln4jq7l9g-62" value="Loadbalancer:&lt;br&gt;analytics" style="ellipse;whiteSpace=wrap;html=1;aspect=fixed;" parent="1" vertex="1">
          <mxGeometry x="750" y="480" width="80" height="80" as="geometry" />
        </mxCell>
        <mxCell id="Ww4fZrXtN5Pln4jq7l9g-63" value="Loadbalancer" style="ellipse;whiteSpace=wrap;html=1;aspect=fixed;" parent="1" vertex="1">
          <mxGeometry x="770" y="250" width="80" height="80" as="geometry" />
        </mxCell>
        <mxCell id="Ww4fZrXtN5Pln4jq7l9g-64" value="Loadbalancer" style="ellipse;whiteSpace=wrap;html=1;aspect=fixed;" parent="1" vertex="1">
          <mxGeometry x="670" y="230" width="80" height="80" as="geometry" />
        </mxCell>
        <mxCell id="Ww4fZrXtN5Pln4jq7l9g-74" value="" style="edgeStyle=orthogonalEdgeStyle;rounded=0;orthogonalLoop=1;jettySize=auto;html=1;" parent="1" source="Ww4fZrXtN5Pln4jq7l9g-71" target="Ww4fZrXtN5Pln4jq7l9g-60" edge="1">
          <mxGeometry relative="1" as="geometry" />
        </mxCell>
        <mxCell id="Ww4fZrXtN5Pln4jq7l9g-75" style="edgeStyle=orthogonalEdgeStyle;rounded=0;orthogonalLoop=1;jettySize=auto;html=1;entryX=1;entryY=0.5;entryDx=0;entryDy=0;" parent="1" source="Ww4fZrXtN5Pln4jq7l9g-71" target="Ww4fZrXtN5Pln4jq7l9g-20" edge="1">
          <mxGeometry relative="1" as="geometry" />
        </mxCell>
        <mxCell id="Ww4fZrXtN5Pln4jq7l9g-76" style="edgeStyle=orthogonalEdgeStyle;rounded=0;orthogonalLoop=1;jettySize=auto;html=1;entryX=0.5;entryY=0;entryDx=0;entryDy=0;" parent="1" source="Ww4fZrXtN5Pln4jq7l9g-71" target="Ww4fZrXtN5Pln4jq7l9g-62" edge="1">
          <mxGeometry relative="1" as="geometry" />
        </mxCell>
        <mxCell id="Ww4fZrXtN5Pln4jq7l9g-71" value="Client" style="outlineConnect=0;fontColor=#232F3E;gradientColor=none;strokeColor=#232F3E;fillColor=#ffffff;dashed=0;verticalLabelPosition=bottom;verticalAlign=top;align=center;html=1;fontSize=12;fontStyle=0;aspect=fixed;shape=mxgraph.aws4.resourceIcon;resIcon=mxgraph.aws4.client;" parent="1" vertex="1">
          <mxGeometry x="880" y="390" width="60" height="60" as="geometry" />
        </mxCell>
        <mxCell id="A-THcMaurx6jMM8Nux3n-4" value="PV" style="shape=cylinder3;whiteSpace=wrap;html=1;boundedLbl=1;backgroundOutline=1;size=15;" vertex="1" parent="1">
          <mxGeometry x="660" y="640" width="60" height="80" as="geometry" />
        </mxCell>
        <mxCell id="A-THcMaurx6jMM8Nux3n-5" style="edgeStyle=orthogonalEdgeStyle;rounded=0;orthogonalLoop=1;jettySize=auto;html=1;exitX=1;exitY=0.75;exitDx=0;exitDy=0;entryX=0;entryY=0;entryDx=0;entryDy=52.5;entryPerimeter=0;" edge="1" parent="1" source="A-THcMaurx6jMM8Nux3n-1" target="A-THcMaurx6jMM8Nux3n-4">
          <mxGeometry relative="1" as="geometry" />
        </mxCell>
      </root>
    </mxGraphModel>
  </diagram>
</mxfile>
